<svg width="178" height="24" viewBox="0 0 178 24" fill="none" xmlns="http://www.w3.org/2000/svg">
<rect x="0.5" y="0.5" width="176.333" height="23" rx="11.5" fill="url(#paint0_linear_36_76)" stroke="#EFEFEF"/>
<path d="M33.3333 16.5687V6.81711H35.9427C37.4338 6.81711 38.5968 7.2197 39.4318 8.02487C40.2668 8.83005 40.6843 10.0378 40.6843 11.6482C40.6843 13.2685 40.2718 14.4961 39.4467 15.3311C38.6216 16.1561 37.4835 16.5687 36.0322 16.5687H33.3333ZM35.063 15.1671H35.8234C36.8075 15.1671 37.568 14.8838 38.1047 14.3172C38.6415 13.7406 38.9099 12.851 38.9099 11.6482C38.9099 10.4553 38.6415 9.58552 38.1047 9.0388C37.568 8.49207 36.8075 8.21871 35.8234 8.21871H35.063V15.1671Z" fill="#2C3236"/>
<path d="M45.6346 16.7476C44.9587 16.7476 44.3473 16.5985 43.8006 16.3003C43.2539 15.9921 42.8215 15.5548 42.5034 14.9881C42.1853 14.4116 42.0262 13.7207 42.0262 12.9156C42.0262 12.1203 42.1853 11.4344 42.5034 10.8579C42.8314 10.2814 43.2539 9.839 43.7708 9.53085C44.2877 9.2227 44.8294 9.06862 45.396 9.06862C46.0621 9.06862 46.6187 9.21773 47.066 9.51594C47.5134 9.80421 47.8513 10.2118 48.08 10.7386C48.3086 11.2555 48.4229 11.8569 48.4229 12.5428C48.4229 12.9007 48.3981 13.179 48.3484 13.3778H43.6962C43.7758 14.0239 44.0094 14.5259 44.397 14.8838C44.7847 15.2416 45.2718 15.4206 45.8583 15.4206C46.1764 15.4206 46.4696 15.3758 46.738 15.2864C47.0163 15.187 47.2897 15.0528 47.5581 14.8838L48.1396 15.9573C47.7917 16.186 47.404 16.3748 46.9766 16.5239C46.5491 16.6731 46.1018 16.7476 45.6346 16.7476ZM43.6813 12.2148H46.9318C46.9318 11.6482 46.8076 11.2058 46.5591 10.8877C46.3106 10.5597 45.9378 10.3957 45.4408 10.3957C45.0133 10.3957 44.6306 10.5547 44.2927 10.8728C43.9646 11.181 43.7608 11.6283 43.6813 12.2148Z" fill="#2C3236"/>
<path d="M50.0606 19.4613V9.24755H51.4771L51.5964 10.0229H51.6561C51.9642 9.76445 52.3072 9.54079 52.6849 9.35192C53.0726 9.16305 53.4652 9.06862 53.8628 9.06862C54.7774 9.06862 55.4831 9.40659 55.9802 10.0825C56.4871 10.7585 56.7406 11.6631 56.7406 12.7963C56.7406 13.6313 56.5915 14.347 56.2933 14.9434C55.9951 15.5299 55.6074 15.9772 55.1303 16.2854C54.6631 16.5935 54.1561 16.7476 53.6094 16.7476C53.2913 16.7476 52.9732 16.678 52.6551 16.5389C52.337 16.3897 52.0288 16.1909 51.7306 15.9424L51.7754 17.1651V19.4613H50.0606ZM53.2515 15.3311C53.7386 15.3311 54.1461 15.1174 54.4742 14.6899C54.8022 14.2625 54.9662 13.6362 54.9662 12.8112C54.9662 12.0756 54.842 11.504 54.5935 11.0965C54.345 10.6889 53.9424 10.4851 53.3857 10.4851C52.8688 10.4851 52.332 10.7585 51.7754 11.3052V14.7198C52.0437 14.9384 52.3022 15.0975 52.5507 15.1969C52.7992 15.2864 53.0328 15.3311 53.2515 15.3311Z" fill="#2C3236"/>
<path d="M60.147 16.7476C59.5406 16.7476 59.1082 16.5637 58.8498 16.1959C58.6013 15.8281 58.477 15.3261 58.477 14.6899V6.04176H60.1917V14.7794C60.1917 14.9881 60.2315 15.1373 60.311 15.2267C60.3905 15.3062 60.475 15.346 60.5645 15.346C60.6042 15.346 60.639 15.346 60.6689 15.346C60.7086 15.3361 60.7633 15.3261 60.8329 15.3162L61.0565 16.5985C60.9571 16.6383 60.8279 16.673 60.6689 16.7029C60.5198 16.7327 60.3458 16.7476 60.147 16.7476Z" fill="#2C3236"/>
<path d="M65.522 16.7476C64.9157 16.7476 64.3491 16.5985 63.8222 16.3003C63.2954 15.9921 62.8679 15.5548 62.5399 14.9881C62.2119 14.4116 62.0479 13.7207 62.0479 12.9156C62.0479 12.1005 62.2119 11.4096 62.5399 10.843C62.8679 10.2664 63.2954 9.82906 63.8222 9.53085C64.3491 9.2227 64.9157 9.06862 65.522 9.06862C66.1384 9.06862 66.7099 9.2227 67.2368 9.53085C67.7636 9.82906 68.1911 10.2664 68.5191 10.843C68.8471 11.4096 69.0111 12.1005 69.0111 12.9156C69.0111 13.7207 68.8471 14.4116 68.5191 14.9881C68.1911 15.5548 67.7636 15.9921 67.2368 16.3003C66.7099 16.5985 66.1384 16.7476 65.522 16.7476ZM65.522 15.346C66.0588 15.346 66.4813 15.1223 66.7894 14.675C67.0976 14.2277 67.2517 13.6412 67.2517 12.9156C67.2517 12.18 67.0976 11.5885 66.7894 11.1412C66.4813 10.6939 66.0588 10.4702 65.522 10.4702C64.9853 10.4702 64.5628 10.6939 64.2546 11.1412C63.9564 11.5885 63.8073 12.18 63.8073 12.9156C63.8073 13.6412 63.9564 14.2277 64.2546 14.675C64.5628 15.1223 64.9853 15.346 65.522 15.346Z" fill="#2C3236"/>
<path d="M71.1131 19.5806C70.9143 19.5806 70.7403 19.5657 70.5912 19.5359C70.4421 19.5061 70.298 19.4713 70.1588 19.4315L70.4719 18.0896C70.5415 18.1094 70.621 18.1293 70.7105 18.1492C70.8099 18.179 70.9043 18.1939 70.9938 18.1939C71.3815 18.1939 71.6896 18.0747 71.9182 17.8361C72.1568 17.6074 72.3357 17.3092 72.455 16.9414L72.5892 16.4792L69.7115 9.24755H71.456L72.7234 12.841C72.8328 13.1591 72.9371 13.4971 73.0365 13.8549C73.1459 14.2029 73.2552 14.5508 73.3646 14.8987H73.4242C73.5137 14.5607 73.6031 14.2178 73.6926 13.8698C73.792 13.512 73.8865 13.169 73.9759 12.841L75.0793 9.24755H76.7344L74.0803 16.8967C73.7721 17.7218 73.3994 18.3729 72.962 18.85C72.5246 19.3371 71.9083 19.5806 71.1131 19.5806Z" fill="#2C3236"/>
<path d="M83.9856 16.7476C83.3792 16.7476 82.8126 16.5985 82.2858 16.3003C81.759 15.9921 81.3315 15.5548 81.0035 14.9881C80.6755 14.4116 80.5114 13.7207 80.5114 12.9156C80.5114 12.1005 80.6755 11.4096 81.0035 10.843C81.3315 10.2664 81.759 9.82906 82.2858 9.53085C82.8126 9.2227 83.3792 9.06862 83.9856 9.06862C84.6019 9.06862 85.1735 9.2227 85.7003 9.53085C86.2272 9.82906 86.6546 10.2664 86.9827 10.843C87.3107 11.4096 87.4747 12.1005 87.4747 12.9156C87.4747 13.7207 87.3107 14.4116 86.9827 14.9881C86.6546 15.5548 86.2272 15.9921 85.7003 16.3003C85.1735 16.5985 84.6019 16.7476 83.9856 16.7476ZM83.9856 15.346C84.5224 15.346 84.9449 15.1223 85.253 14.675C85.5612 14.2277 85.7153 13.6412 85.7153 12.9156C85.7153 12.18 85.5612 11.5885 85.253 11.1412C84.9449 10.6939 84.5224 10.4702 83.9856 10.4702C83.4488 10.4702 83.0264 10.6939 82.7182 11.1412C82.42 11.5885 82.2709 12.18 82.2709 12.9156C82.2709 13.6412 82.42 14.2277 82.7182 14.675C83.0264 15.1223 83.4488 15.346 83.9856 15.346Z" fill="#2C3236"/>
<path d="M89.172 16.5687V9.24755H90.5885L90.7078 10.2316H90.7674C91.0954 9.91356 91.4533 9.64019 91.841 9.41156C92.2286 9.18293 92.671 9.06862 93.168 9.06862C93.9533 9.06862 94.5249 9.3221 94.8827 9.82906C95.2406 10.336 95.4195 11.0517 95.4195 11.9762V16.5687H93.7048V12.1999C93.7048 11.5935 93.6153 11.1661 93.4364 10.9175C93.2575 10.669 92.9642 10.5448 92.5567 10.5448C92.2386 10.5448 91.9553 10.6243 91.7068 10.7833C91.4682 10.9325 91.1948 11.1561 90.8867 11.4543V16.5687H89.172Z" fill="#2C3236"/>
<path d="M100.65 16.5687V6.81711H102.379V10.7386H106.331V6.81711H108.06V16.5687H106.331V12.2446H102.379V16.5687H100.65Z" fill="#2C3236"/>
<path d="M110.537 16.5687V6.81711H116.426V8.27835H112.266V11.0368H115.815V12.4981H112.266V16.5687H110.537Z" fill="#2C3236"/>
<path d="M123.971 16.7476C123.315 16.7476 122.678 16.6233 122.062 16.3748C121.456 16.1263 120.919 15.7734 120.452 15.3162L121.466 14.1382C121.814 14.4663 122.211 14.7347 122.658 14.9434C123.106 15.1422 123.553 15.2416 124 15.2416C124.557 15.2416 124.98 15.1273 125.268 14.8987C125.556 14.6701 125.7 14.3669 125.7 13.9891C125.7 13.5816 125.556 13.2883 125.268 13.1094C124.99 12.9305 124.632 12.7466 124.194 12.5577L122.852 11.9762C122.534 11.837 122.221 11.6581 121.913 11.4394C121.615 11.2207 121.366 10.9424 121.167 10.6044C120.979 10.2664 120.884 9.85888 120.884 9.38174C120.884 8.86484 121.023 8.40261 121.302 7.99505C121.59 7.57755 121.978 7.24952 122.465 7.01095C122.962 6.76244 123.528 6.63818 124.164 6.63818C124.731 6.63818 125.278 6.7525 125.805 6.98113C126.331 7.19982 126.784 7.49803 127.162 7.87577L126.282 8.97916C125.974 8.7207 125.646 8.51693 125.298 8.36782C124.96 8.21871 124.582 8.14416 124.164 8.14416C123.707 8.14416 123.334 8.24853 123.046 8.45728C122.768 8.65609 122.629 8.93442 122.629 9.29228C122.629 9.54079 122.698 9.74954 122.837 9.91853C122.987 10.0776 123.18 10.2167 123.419 10.336C123.657 10.4454 123.911 10.5547 124.179 10.6641L125.506 11.2158C126.083 11.4643 126.555 11.7923 126.923 12.1999C127.291 12.5975 127.475 13.1492 127.475 13.8549C127.475 14.3818 127.335 14.8639 127.057 15.3013C126.779 15.7386 126.376 16.0915 125.849 16.3599C125.332 16.6184 124.706 16.7476 123.971 16.7476Z" fill="#2C3236"/>
<path d="M129.099 19.4613V9.24755H130.515L130.635 10.0229H130.694C131.002 9.76445 131.345 9.54079 131.723 9.35192C132.111 9.16305 132.503 9.06862 132.901 9.06862C133.815 9.06862 134.521 9.40659 135.018 10.0825C135.525 10.7585 135.779 11.6631 135.779 12.7963C135.779 13.6313 135.63 14.347 135.331 14.9434C135.033 15.5299 134.645 15.9772 134.168 16.2854C133.701 16.5935 133.194 16.7476 132.647 16.7476C132.329 16.7476 132.011 16.678 131.693 16.5389C131.375 16.3897 131.067 16.1909 130.769 15.9424L130.813 17.1651V19.4613H129.099ZM132.29 15.3311C132.777 15.3311 133.184 15.1174 133.512 14.6899C133.84 14.2625 134.004 13.6362 134.004 12.8112C134.004 12.0756 133.88 11.504 133.632 11.0965C133.383 10.6889 132.98 10.4851 132.424 10.4851C131.907 10.4851 131.37 10.7585 130.813 11.3052V14.7198C131.082 14.9384 131.34 15.0975 131.589 15.1969C131.837 15.2864 132.071 15.3311 132.29 15.3311Z" fill="#2C3236"/>
<path d="M139.115 16.7476C138.479 16.7476 137.957 16.5488 137.549 16.1512C137.151 15.7536 136.953 15.2367 136.953 14.6005C136.953 13.8152 137.296 13.2088 137.982 12.7814C138.667 12.344 139.761 12.0458 141.262 11.8867C141.252 11.4991 141.148 11.1661 140.949 10.8877C140.76 10.5994 140.417 10.4553 139.92 10.4553C139.562 10.4553 139.209 10.5249 138.861 10.6641C138.523 10.8032 138.19 10.9722 137.862 11.171L137.236 10.0229C137.644 9.76445 138.101 9.54079 138.608 9.35192C139.125 9.16305 139.671 9.06862 140.248 9.06862C141.162 9.06862 141.843 9.34198 142.291 9.88871C142.748 10.4255 142.977 11.2058 142.977 12.2297V16.5687H141.56L141.441 15.7635H141.381C141.053 16.0418 140.7 16.2754 140.322 16.4643C139.955 16.6532 139.552 16.7476 139.115 16.7476ZM139.666 15.4056C139.965 15.4056 140.233 15.3361 140.472 15.1969C140.72 15.0478 140.984 14.849 141.262 14.6005V12.9603C140.268 13.0895 139.577 13.2834 139.189 13.5418C138.802 13.7903 138.608 14.0985 138.608 14.4663C138.608 14.7943 138.707 15.0329 138.906 15.182C139.105 15.3311 139.358 15.4056 139.666 15.4056Z" fill="#2C3236"/>
<path d="M148.085 16.7476C147.419 16.7476 146.818 16.5985 146.281 16.3003C145.754 15.9921 145.332 15.5548 145.014 14.9881C144.706 14.4116 144.551 13.7207 144.551 12.9156C144.551 12.1005 144.72 11.4096 145.058 10.843C145.396 10.2664 145.844 9.82906 146.4 9.53085C146.967 9.2227 147.573 9.06862 148.22 9.06862C148.687 9.06862 149.094 9.14814 149.442 9.30719C149.79 9.46624 150.098 9.66008 150.367 9.88871L149.532 11.007C149.343 10.838 149.149 10.7088 148.95 10.6193C148.751 10.5199 148.538 10.4702 148.309 10.4702C147.723 10.4702 147.24 10.6939 146.863 11.1412C146.495 11.5885 146.311 12.18 146.311 12.9156C146.311 13.6412 146.49 14.2277 146.848 14.675C147.216 15.1223 147.688 15.346 148.264 15.346C148.553 15.346 148.821 15.2864 149.069 15.1671C149.328 15.0378 149.561 14.8887 149.77 14.7198L150.471 15.853C150.133 16.1512 149.755 16.3748 149.338 16.5239C148.92 16.6731 148.503 16.7476 148.085 16.7476Z" fill="#2C3236"/>
<path d="M154.683 16.7476C154.007 16.7476 153.396 16.5985 152.849 16.3003C152.303 15.9921 151.87 15.5548 151.552 14.9881C151.234 14.4116 151.075 13.7207 151.075 12.9156C151.075 12.1203 151.234 11.4344 151.552 10.8579C151.88 10.2814 152.303 9.839 152.819 9.53085C153.336 9.2227 153.878 9.06862 154.445 9.06862C155.111 9.06862 155.667 9.21773 156.115 9.51594C156.562 9.80421 156.9 10.2118 157.129 10.7386C157.357 11.2555 157.472 11.8569 157.472 12.5428C157.472 12.9007 157.447 13.179 157.397 13.3778H152.745C152.824 14.0239 153.058 14.5259 153.446 14.8838C153.833 15.2416 154.32 15.4206 154.907 15.4206C155.225 15.4206 155.518 15.3758 155.787 15.2864C156.065 15.187 156.338 15.0528 156.607 14.8838L157.188 15.9573C156.84 16.186 156.453 16.3748 156.025 16.5239C155.598 16.6731 155.15 16.7476 154.683 16.7476ZM152.73 12.2148H155.981C155.981 11.6482 155.856 11.2058 155.608 10.8877C155.359 10.5597 154.986 10.3957 154.489 10.3957C154.062 10.3957 153.679 10.5547 153.341 10.8728C153.013 11.181 152.81 11.6283 152.73 12.2148Z" fill="#2C3236"/>
<path d="M161.152 16.7476C160.655 16.7476 160.158 16.6532 159.661 16.4643C159.164 16.2655 158.737 16.022 158.379 15.7337L159.184 14.6303C159.512 14.8788 159.84 15.0776 160.168 15.2267C160.496 15.3758 160.844 15.4504 161.212 15.4504C161.609 15.4504 161.903 15.3659 162.091 15.1969C162.28 15.0279 162.375 14.8192 162.375 14.5706C162.375 14.3619 162.295 14.1929 162.136 14.0637C161.987 13.9245 161.793 13.8052 161.555 13.7058C161.316 13.5965 161.068 13.4921 160.809 13.3927C160.491 13.2734 160.173 13.1293 159.855 12.9603C159.547 12.7814 159.293 12.5577 159.094 12.2893C158.896 12.011 158.796 11.668 158.796 11.2605C158.796 10.6144 159.035 10.0875 159.512 9.67996C159.989 9.2724 160.635 9.06862 161.45 9.06862C161.967 9.06862 162.429 9.15808 162.837 9.33701C163.245 9.51594 163.597 9.71972 163.896 9.94835L163.105 10.9921C162.847 10.8032 162.583 10.6541 162.315 10.5448C162.057 10.4255 161.783 10.3658 161.495 10.3658C161.127 10.3658 160.854 10.4454 160.675 10.6044C160.496 10.7535 160.407 10.9424 160.407 11.171C160.407 11.4593 160.556 11.678 160.854 11.8271C161.152 11.9762 161.5 12.1203 161.898 12.2595C162.236 12.3788 162.564 12.5279 162.882 12.7068C163.2 12.8758 163.463 13.0995 163.672 13.3778C163.891 13.6561 164 14.0239 164 14.4812C164 15.1074 163.756 15.6442 163.269 16.0915C162.782 16.5289 162.077 16.7476 161.152 16.7476Z" fill="#2C3236"/>
<path d="M16.2778 13.0223V15.3689H18.6199V13.0223H16.2778Z" fill="#FF3270"/>
<path d="M20.9828 13.0223V15.3689H23.3249V13.0223H20.9828Z" fill="#861FFF"/>
<path d="M16.2778 8.30873V10.6553H18.6199V8.30873H16.2778Z" fill="#097EFF"/>
<path fill-rule="evenodd" clip-rule="evenodd" d="M14.6391 7.70872C14.6391 7.13321 15.1048 6.66667 15.6792 6.66667H19.2188C19.6993 6.66667 20.1037 6.99304 20.2231 7.43656C20.7265 6.95933 21.4061 6.66667 22.1539 6.66667C23.7057 6.66667 24.9638 7.92707 24.9638 9.48184C24.9638 10.2311 24.6717 10.9119 24.1953 11.4163C24.6381 11.536 24.9638 11.9411 24.9638 12.4225V15.9687C24.9638 16.5442 24.4981 17.0109 23.9237 17.0109H20.2589H19.344H15.6792C15.1048 17.0109 14.6391 16.5442 14.6391 15.9687V11.4761V11.3804V7.70872ZM16.2779 8.30858V10.6552H18.6201V8.30858H16.2779ZM16.2779 15.3689V13.0223H18.6201V15.3689H16.2779ZM20.9828 15.3689V13.0223H23.325V15.3689H20.9828ZM20.9828 9.48184C20.9828 8.83388 21.5072 8.30858 22.1539 8.30858C22.8007 8.30858 23.325 8.83388 23.325 9.48184C23.325 10.1299 22.8007 10.6552 22.1539 10.6552C21.5072 10.6552 20.9828 10.1299 20.9828 9.48184Z" fill="black"/>
<path d="M22.1539 8.30873C21.5071 8.30873 20.9828 8.83403 20.9828 9.48204C20.9828 10.13 21.5071 10.6553 22.1539 10.6553C22.8006 10.6553 23.3249 10.13 23.3249 9.48204C23.3249 8.83403 22.8006 8.30873 22.1539 8.30873Z" fill="#FFD702"/>
<defs>
<linearGradient id="paint0_linear_36_76" x1="-8.84575e-08" y1="12" x2="61.6628" y2="12" gradientUnits="userSpaceOnUse">
<stop stop-color="#F5F9FA"/>
<stop offset="1" stop-color="white"/>
</linearGradient>
</defs>
</svg>
